PathFileType        4      (X/Y/Z)      C:\Users\pc\Desktop\IMUTRC\Sujet_05\Sujet_05_velo_80.trc         
DataRate	CameraRate	NumFrames	NumMarkers	Units	OrigDataRate	OrigDataStartFrame	OrigNumFrames
60.0	60.0	4	64	mm	60.0	372	990
Frame#	Time	pHipOrigin			pRightASI			pLeftASI			pRightCSI			pLeftCSI			pRightIschialTub			pLeftIschialTub			pSacrum			pL5SpinalProcess			pL3SpinalProcess			pT12SpinalProcess			pIJ			pT4SpinalProcess			pT8SpinalProcess			pPX			pC7SpinalProcess			pTopOfHead			pRightAuricularis			pLeftAuricularis			pBackOfHead			pRightAcromion			pLeftAcromion			pRightArmLatEpicondyle			pRightArmMedEpicondyle			pLeftArmLatEpicondyle			pLeftArmMedEpicondyle			pRightUlnarStyloid			pRightRadialStyloid			pRightOlecranon			pLeftUlnarStyloid			pLeftRadialStyloid			pLeftOlecranon			pRightTopOfHand			pRightPinky			pRightBallHand			pLeftTopOfHand			pLeftPinky			pLeftBallHand			pRightGreaterTrochanter			pRightKneeLatEpicondyle			pRightKneeMedEpicondyle			pRightPatella			pLeftGreaterTrochanter			pLeftKneeLatEpicondyle			pLeftKneeMedEpicondyle			pLeftPatella			pRightTibialTub			pRightLatMalleolus			pRightMedMalleolus			pLeftTibialTub			pLeftLatMalleolus			pLeftMedMalleolus			pRightHeelFoot			pRightFirstMetatarsal			pRightFifthMetatarsal			pRightPivotFoot			pRightHeelCenter			pRightToe			pLeftHeelFoot			pLeftFirstMetatarsal			pLeftFifthMetatarsal			pLeftPivotFoot			pLeftHeelCenter			pLeftToe			
		X1	Y1	Z1	X2	Y2	Z2	X3	Y3	Z3	X4	Y4	Z4	X5	Y5	Z5	X6	Y6	Z6	X7	Y7	Z7	X8	Y8	Z8	X9	Y9	Z9	X10	Y10	Z10	X11	Y11	Z11	X12	Y12	Z12	X13	Y13	Z13	X14	Y14	Z14	X15	Y15	Z15	X16	Y16	Z16	X17	Y17	Z17	X18	Y18	Z18	X19	Y19	Z19	X20	Y20	Z20	X21	Y21	Z21	X22	Y22	Z22	X23	Y23	Z23	X24	Y24	Z24	X25	Y25	Z25	X26	Y26	Z26	X27	Y27	Z27	X28	Y28	Z28	X29	Y29	Z29	X30	Y30	Z30	X31	Y31	Z31	X32	Y32	Z32	X33	Y33	Z33	X34	Y34	Z34	X35	Y35	Z35	X36	Y36	Z36	X37	Y37	Z37	X38	Y38	Z38	X39	Y39	Z39	X40	Y40	Z40	X41	Y41	Z41	X42	Y42	Z42	X43	Y43	Z43	X44	Y44	Z44	X45	Y45	Z45	X46	Y46	Z46	X47	Y47	Z47	X48	Y48	Z48	X49	Y49	Z49	X50	Y50	Z50	X51	Y51	Z51	X52	Y52	Z52	X53	Y53	Z53	X54	Y54	Z54	X55	Y55	Z55	X56	Y56	Z56	X57	Y57	Z57	X58	Y58	Z58	X59	Y59	Z59	X60	Y60	Z60	X61	Y61	Z61	X62	Y62	Z62	X63	Y63	Z63	X64	Y64	Z64	
372	6.183	0.0	1249.99512	7.654012613289058E-14	69.15113000000001	1341.9841	121.72454000000009	50.48669999999999	1346.27344	-127.46298999999992	24.576760000000007	1403.5999	105.03089000000008	9.042389999999992	1407.13571	-102.24861999999992	-46.60311	1194.75537	54.66012000000007	-54.3703	1196.49429	-48.97963999999993	-62.65916	1268.07991	4.984910000000081	-29.50371	1369.05332	2.782280000000086	25.62012	1475.93906	1.6229900000000888	83.52622	1569.66696	0.5216800000000911	343.90081	1601.95294	5.216770000000077	229.30585	1706.28827	9.043908965249559E-14	154.99592	1651.91797	-0.34777999999990833	245.53579	1523.4696	4.926950000000078	278.40142	1740.66096	1.3911400000000895	556.33912	1792.88658	-22.548019999999926	466.61075	1754.6303	61.61580000000008	447.94632	1759.20946	-83.52621999999991	438.09243	1810.97137	-6.781799999999915	276.37268	1667.16252	197.83136000000007	278.40142	1664.95989	-194.4694499999999	351.20429	1414.67104	182.58681000000007	336.07567	1410.49763	127.40502000000006	378.33147	1429.04613	-172.50106999999994	356.53698	1420.23559	-120.21747999999994	453.85865	1198.98674	179.34083000000007	495.8826	1225.01261	185.94873000000007	320.07758	1405.10697	153.48885000000007	484.17386	1214.92686	-173.60237999999995	524.9226	1242.2859	-182.47088999999994	344.53842	1416.46793	-143.57699999999994	503.93961	1141.25453	345.46584	478.08763	1136.67537	263.2728	482.66679	1178.87321	204.43927000000005	601.84092	1163.5707	-314.571	544.05074	1155.86148	-250.92644999999996	522.0244	1196.37836	-194.99111999999994	26.43161000000001	1218.40471	146.8229800000001	282.11112	966.02916	103.46586000000005	286.86417	974.95562	33.677120000000045	310.57148	999.9961	71.75952000000004	7.999039999999991	1222.2883	-148.6198699999999	313.7595	1028.86221	-142.59160999999997	327.38106	1042.19394	-74.77364999999996	339.14776	1069.49502	-116.62369999999994	310.45555	924.23706	63.99233000000004	66.31089	637.48882	78.01964000000004	65.90515	641.14056	18.432570000000034	365.8692	1005.56065	-116.68166999999997	271.3298	641.60427	-142.7655	281.47351	639.69145	-83.98992999999997	-24.113049999999998	616.79565	52.68934000000004	75.41125	493.21625	2.4924500000000256	80.16431	489.50655	80.68598000000003	91.64119	474.08811	38.83593000000002	2.550420000000003	588.27733	49.675210000000035	142.06993	411.42895	32.80766000000002	223.21963	564.2802	-113.95735999999998	382.1571	537.32691	-72.62898	383.66417	536.8632	-151.05436	404.82105	533.26942	-110.36359	262.22944	560.39661	-113.20381999999998	484.34775	519.30008	-108.74059	
373	6.2	0.0	1249.99512	7.654012613289058E-14	67.81796000000001	1342.91153	121.78251000000009	51.58801999999999	1345.46194	-127.57890999999991	23.301560000000006	1404.35344	104.21939000000009	9.795929999999993	1406.44014	-103.23399999999991	-47.00886	1195.04519	54.60215000000007	-53.79066	1196.08854	-49.15352999999993	-62.77509	1268.02195	4.289340000000081	-29.6776	1369.05332	1.7968900000000858	25.3303	1475.99703	0.8694600000000888	83.12047	1569.78289	0.28982000000009106	343.37914	1602.24277	7.593290000000076	228.84214	1706.52012	1.5070700000000905	154.53221	1652.09186	0.2898200000000917	245.07208	1523.64349	6.086230000000078	277.82178	1740.89282	3.4778400000000897	555.75948	1793.64012	-18.722389999999926	465.74129	1755.03605	64.97772000000009	447.71446	1759.84707	-80.22226999999991	437.45482	1811.43509	-3.4198799999999157	273.93818	1666.58288	199.51232000000007	278.86513	1665.71342	-193.02034999999992	350.2189	1414.84493	182.87663000000006	335.49603	1411.01931	127.57891000000006	378.15758	1429.45188	-172.21124999999995	356.42105	1420.52541	-119.86968999999995	453.68476	1199.62435	179.10897000000006	495.70871	1225.76614	185.71687000000006	319.32405	1405.39679	153.72071000000005	483.942	1215.27465	-173.83423999999994	524.69074	1242.69165	-182.64477999999994	344.42249	1416.81571	-143.28717999999995	504.05553	1141.83417	345.11806	478.1456	1137.31298	262.92501	482.60883	1179.56878	204.14945000000006	601.49313	1164.26627	-315.03471	543.81889	1156.38315	-251.39015999999998	521.79254	1196.78411	-195.28093999999993	26.48958000000001	1219.91177	147.0548400000001	295.50082	981.4476	105.61053000000004	300.48573	990.83778	35.93772000000004	322.45411	1016.97957	74.25197000000004	6.897719999999991	1219.91177	-148.33004999999991	299.96405	1007.82125	-140.21507999999997	314.51303	1021.15298	-72.62897999999996	327.90273	1047.12089	-114.88477999999995	322.39615	939.48161	66.07904000000005	70.77413	659.10942	77.20814000000004	70.94802	662.93504	17.679040000000036	353.87063	985.50508	-114.65292999999997	268.31567	619.46199	-142.12789	278.57531	617.49122	-83.35232999999997	-19.939639999999997	640.96666	52.16766000000004	76.10682	514.54703	2.144670000000027	80.9758	510.95326	80.33820000000003	91.87305	495.12907	38.54611000000002	5.970300000000003	611.69481	49.21149000000003	140.67879	431.07877	32.57581000000002	220.43735	541.96403	-113.66753999999999	379.085	515.35853	-71.12191	381.17171	514.83685	-149.48933	402.03877	511.30104	-108.62466	259.3892	538.19637	-112.62417999999998	481.56548	497.56356	-106.42203	
374	6.217	0.0	1249.99512	7.654012613289058E-14	66.77461000000001	1343.83895	121.66658000000008	52.80526999999999	1344.47656	-127.86872999999991	22.432090000000006	1405.10697	103.23400000000008	10.781319999999992	1405.68661	-104.33531999999991	-47.53054	1195.45094	54.60215000000007	-53.38491	1195.74076	-49.21148999999993	-62.77509	1268.07991	3.535810000000082	-29.6776	1369.05332	0.7535300000000856	25.38826	1475.99703	8.882416934977896E-14	83.29437	1569.72492	-0.115929999999909	343.4371	1602.12684	9.737960000000076	228.95807	1706.46216	2.8982000000000903	154.7061	1652.0339	0.7535300000000917	245.13004	1523.58552	7.013650000000078	277.93771	1740.77689	5.44862000000009	555.87541	1794.10383	-14.838799999999924	465.50943	1755.15198	68.28167000000009	448.23614	1760.07892	-76.97627999999992	437.39686	1811.55101	-0.17388999999991583	272.31519	1665.59749	200.9614200000001	280.14034	1666.2351	-191.62920999999992	349.63926	1414.55511	183.05053000000007	335.3801	1411.13523	127.57891000000006	378.33147	1429.39391	-172.09531999999993	356.30513	1420.11966	-119.98561999999994	453.6268	1199.62435	178.70322000000004	495.59278	1225.82411	185.31113000000005	318.97627	1405.2229	153.83664000000005	483.71015	1214.92686	-174.29794999999993	524.45889	1242.2859	-182.99255999999994	344.42249	1416.64182	-143.28717999999995	504.22943	1141.66028	344.59638	478.20356	1137.19705	262.4613	482.55087	1179.56878	203.74370000000005	601.02942	1164.3822	-315.78824	543.41314	1156.26723	-252.08572999999998	521.50272	1196.49429	-195.80261999999993	26.77940000000001	1221.70866	147.2287300000001	308.07902	997.50364	107.46538000000004	312.948	1007.18364	37.850540000000045	333.29339	1034.42676	76.33868000000004	5.390659999999991	1217.47728	-147.98226999999991	283.61818	986.31658	-137.54872999999998	299.26848	999.64832	-70.19448999999996	314.22321	1023.99322	-112.85603999999995	333.69914	955.4797	68.04982000000004	76.97628	679.6287	76.68646000000004	77.67185	683.62822	17.15736000000004	338.91591	964.9858	-112.10250999999995	260.95423	597.37768	-141.60622	270.98202	595.40691	-82.77268999999997	-13.795449999999997	662.5293	51.93580000000004	80.62802	534.89242	1.9128100000000279	85.61293	531.41457	80.10634000000003	96.27832	515.35853	38.31425000000002	11.766710000000003	632.96762	48.97964000000004	144.27257	450.5547	32.34395000000002	212.78609	519.93769	-113.31974999999998	371.028	492.9844	-69.49892	373.69435	492.34679	-147.86634	394.27159	488.81098	-106.82778	251.67998	516.0541	-111.92861999999998	473.74033	474.89961	-104.0455	
375	6.233	0.0	1249.99512	7.654012613289058E-14	65.84718000000001	1344.70841	121.49269000000008	54.080479999999994	1343.37524	-128.1585499999999	21.794490000000007	1405.91847	102.19065000000009	11.940599999999993	1404.81715	-105.43663999999991	-48.11018	1195.97261	54.60215000000007	-53.03712	1195.45094	-49.21148999999993	-62.77509	1268.19584	2.898200000000082	-29.44575	1369.11128	-0.3477799999999144	25.73605	1475.93906	-0.8694599999999112	83.70011	1569.60899	-0.521679999999909	343.84285	1601.77905	11.708740000000077	229.47974	1706.2303	4.17341000000009	155.22777	1651.80204	1.1013200000000918	245.53579	1523.2957	7.767190000000078	278.40142	1740.48707	7.30347000000009	556.28116	1794.39365	-10.955209999999923	465.50943	1755.03605	71.58562000000009	449.16356	1760.19485	-73.84621999999992	437.68668	1811.49305	3.0141300000000846	271.21387	1664.43821	202.23663000000008	281.93723	1666.58288	-190.35399999999993	349.23351	1413.97547	183.16645000000005	335.43806	1410.96134	127.57891000000006	378.67926	1429.04613	-172.09531999999993	356.1892	1419.42409	-120.21747999999994	453.56883	1199.2186	178.18154000000007	495.47685	1225.41836	184.84741000000005	318.74441	1404.81715	153.89460000000005	483.3044	1214.23129	-174.87758999999994	524.22703	1241.53237	-183.45626999999993	344.53842	1416.17811	-143.51902999999993	504.34535	1141.02268	343.95878	478.20356	1136.67537	261.88166	482.4929	1179.16303	203.16406000000006	600.50774	1164.09238	-316.6577	543.00739	1155.74555	-252.89722999999998	521.15493	1195.79872	-196.49818999999994	27.12718000000001	1223.62147	147.4026200000001	319.84573	1014.31322	109.14634000000004	324.54082	1024.10915	39.53149000000004	343.26321	1052.45358	78.07760000000006	3.5937699999999912	1215.21668	-147.5765199999999	264.89579	965.15969	-134.70848999999998	281.76333	978.25957	-67.58609999999996	298.16717	1000.92352	-110.65340999999995	344.53842	972.34724	69.90467000000004	84.8594	699.22055	76.33868000000004	86.01868	703.27804	16.80958000000004	321.81651	944.1767	-109.26226999999996	249.99902	575.58319	-141.14251	259.5631	573.43852	-82.25100999999998	-5.564549999999996	682.17912	51.87784000000004	88.74299	554.48427	1.7968900000000287	93.95975	551.12236	79.99041000000003	104.50921	535.00835	38.19832000000003	19.939640000000004	652.61744	48.92167000000004	152.50346	470.26248	32.22802000000002	200.90346	498.54895	-112.91399999999999	358.68165	470.43638	-67.99185	361.86968	469.50895	-146.30131	382.09914	465.91518	-105.14682	239.85531	494.31757	-111.29100999999999	461.45194	451.30823	-101.72694	
